<svg xmlns="http://www.w3.org/2000/svg" width="23" height="23" viewBox="0 0 23 23">
    <path fill="none" fill-rule="evenodd" stroke="#8A93A0" d="M12.43 17.73c-.515-.286-1.347-.286-1.862 0L6.86 19.77c-1.029.565-1.702.05-1.507-1.148l.71-4.322c.098-.6-.159-1.43-.577-1.856l-2.998-3.06c-.833-.85-.572-1.682.576-1.856l4.143-.63c.575-.089 1.25-.602 1.507-1.148l1.853-3.933c.516-1.09 1.35-1.088 1.863 0l1.856 3.933c.256.546.93 1.06 1.507 1.148l4.144.63c1.15.174 1.406 1.009.575 1.856l-3 3.06c-.416.426-.674 1.256-.576 1.856l.709 4.322c.196 1.2-.481 1.713-1.507 1.148l-3.708-2.04z"/>
</svg>
