<svg xmlns="http://www.w3.org/2000/svg" width="23" height="23" viewBox="0 0 23 23">
    <path fill="none" fill-rule="evenodd" stroke="#8A93A0" stroke-linecap="round" stroke-linejoin="round"
        d="M5 8.692V21H3.372C2.616 21 2 20.131 2 19.064v-8.283c0-1.112.642-2.089 1.372-2.089H5zm6.705-6.027c.146-.99.962-1.683 1.856-1.665 1.278.025 2.039 1.11 2.303 1.647.482.98.495 2.595.165 3.632-.3.938-.993 2.171-.993 2.171h5.194c.549 0 1.058.275 1.399.752.345.487.458 1.12.302 1.695l-2.35 8.685c-.213.835-.922 1.418-1.72 1.418H7V8.864c2.346-.517 4.44-4.41 4.705-6.199z" />
</svg>